<?xml version="1.0" encoding="utf-8" ?>
<svg baseProfile="full" height="256" version="1.1" width="256" xmlns="http://www.w3.org/2000/svg" xmlns:ev="http://www.w3.org/2001/xml-events" xmlns:xlink="http://www.w3.org/1999/xlink"><defs /><path d="M 255,144 L 254,145 L 254,150 L 253,151 L 253,155 L 252,156 L 252,159 L 251,160 L 251,163 L 250,164 L 250,167 L 249,168 L 249,170 L 248,171 L 248,172 L 247,173 L 247,175 L 246,176 L 246,178 L 245,179 L 245,180 L 244,181 L 244,182 L 243,183 L 243,184 L 242,185 L 242,186 L 241,187 L 241,188 L 240,189 L 240,190 L 238,192 L 238,193 L 237,194 L 237,195 L 235,197 L 235,198 L 233,200 L 233,201 L 230,204 L 230,205 L 227,208 L 227,209 L 208,228 L 207,228 L 204,231 L 203,231 L 200,234 L 199,234 L 197,236 L 196,236 L 195,237 L 194,237 L 192,239 L 191,239 L 190,240 L 189,240 L 187,242 L 185,242 L 184,243 L 183,243 L 182,244 L 181,244 L 180,245 L 179,245 L 178,246 L 176,246 L 175,247 L 173,247 L 172,248 L 171,248 L 170,249 L 169,249 L 168,250 L 164,250 L 163,251 L 162,251 L 161,252 L 160,251 L 159,252 L 156,252 L 155,253 L 150,253 L 148,255 L 147,254 L 143,254 L 142,255 L 143,254 L 147,254 L 148,255 L 149,254 L 150,254 L 151,253 L 155,253 L 156,252 L 159,252 L 160,251 L 161,252 L 162,251 L 163,251 L 164,250 L 168,250 L 169,249 L 170,249 L 171,248 L 172,248 L 173,247 L 175,247 L 176,246 L 178,246 L 179,245 L 180,245 L 181,244 L 182,244 L 183,243 L 184,243 L 185,242 L 187,242 L 188,241 L 189,241 L 191,239 L 192,239 L 193,238 L 194,238 L 196,236 L 197,236 L 198,235 L 199,235 L 201,233 L 202,233 L 205,230 L 206,230 L 209,227 L 210,227 L 226,211 L 226,210 L 229,207 L 229,206 L 232,203 L 232,202 L 234,200 L 234,199 L 236,197 L 236,196 L 237,195 L 237,194 L 239,192 L 239,191 L 240,190 L 240,189 L 241,188 L 241,187 L 242,186 L 242,185 L 243,184 L 243,183 L 244,182 L 244,181 L 245,180 L 245,179 L 246,178 L 246,176 L 247,175 L 247,173 L 248,172 L 248,171 L 249,170 L 249,168 L 250,167 L 250,164 L 251,163 L 251,160 L 252,159 L 252,156 L 253,155 L 253,151 L 254,150 L 254,145 Z" fill="none" stroke="black" stroke-width="1" /><path d="M 0,144 L 1,145 L 0,146 L 0,148 L 1,149 L 1,150 L 2,151 L 2,153 L 1,154 L 2,155 L 2,156 L 3,157 L 2,158 L 3,159 L 3,160 L 4,161 L 3,162 L 4,163 L 4,165 L 5,166 L 5,168 L 6,169 L 6,170 L 7,171 L 7,173 L 8,174 L 8,175 L 9,176 L 9,178 L 10,179 L 10,180 L 11,181 L 11,182 L 12,183 L 12,184 L 13,185 L 13,186 L 14,187 L 14,188 L 15,189 L 15,190 L 16,191 L 16,192 L 18,194 L 18,195 L 19,196 L 19,197 L 21,199 L 21,200 L 23,202 L 23,203 L 26,206 L 26,207 L 29,210 L 29,211 L 45,227 L 46,227 L 49,230 L 50,230 L 53,233 L 54,233 L 56,235 L 57,235 L 58,236 L 59,236 L 61,238 L 62,238 L 63,239 L 64,239 L 66,241 L 68,241 L 69,242 L 70,242 L 71,243 L 72,243 L 73,244 L 74,244 L 75,245 L 76,245 L 77,246 L 79,246 L 80,247 L 82,247 L 83,248 L 84,248 L 85,249 L 87,249 L 88,250 L 91,250 L 92,251 L 95,251 L 96,252 L 99,252 L 100,253 L 104,253 L 105,254 L 106,254 L 107,255 L 108,254 L 112,254 L 113,255 L 112,254 L 108,254 L 107,255 L 105,253 L 100,253 L 99,252 L 96,252 L 95,251 L 92,251 L 91,250 L 88,250 L 87,249 L 85,249 L 84,248 L 83,248 L 82,247 L 80,247 L 79,246 L 77,246 L 76,245 L 75,245 L 74,244 L 73,244 L 72,243 L 71,243 L 70,242 L 69,242 L 68,241 L 67,241 L 66,240 L 65,240 L 64,239 L 63,239 L 61,237 L 60,237 L 59,236 L 58,236 L 56,234 L 55,234 L 52,231 L 51,231 L 48,228 L 47,228 L 28,209 L 28,208 L 25,205 L 25,204 L 22,201 L 22,200 L 20,198 L 20,197 L 18,195 L 18,194 L 17,193 L 17,192 L 15,190 L 15,189 L 14,188 L 14,187 L 13,186 L 13,185 L 12,184 L 12,183 L 11,182 L 11,181 L 10,180 L 10,179 L 9,178 L 9,176 L 8,175 L 8,174 L 7,173 L 7,171 L 6,170 L 6,169 L 5,168 L 5,166 L 4,165 L 4,163 L 3,162 L 4,161 L 4,160 L 2,158 L 3,157 L 3,156 L 1,154 L 2,153 L 2,151 L 1,150 L 1,149 L 0,148 L 0,146 L 1,145 Z" fill="none" stroke="black" stroke-width="1" /><path d="M 69,139 L 68,140 L 70,142 L 70,143 L 73,146 L 73,147 L 75,149 L 75,150 L 78,153 L 78,154 L 80,156 L 80,157 L 83,160 L 83,161 L 85,163 L 85,164 L 88,167 L 88,168 L 90,170 L 90,171 L 93,174 L 93,175 L 95,177 L 95,178 L 97,180 L 97,181 L 100,184 L 100,185 L 102,187 L 102,188 L 105,191 L 105,192 L 107,194 L 107,195 L 110,198 L 110,199 L 112,201 L 112,202 L 115,205 L 115,206 L 117,208 L 117,209 L 119,211 L 119,212 L 122,215 L 122,216 L 124,218 L 124,219 L 127,222 L 128,222 L 130,220 L 130,219 L 133,216 L 133,215 L 135,213 L 135,212 L 138,209 L 138,208 L 140,206 L 140,205 L 143,202 L 143,201 L 145,199 L 145,198 L 148,195 L 148,194 L 150,192 L 150,191 L 153,188 L 153,187 L 155,185 L 155,184 L 157,182 L 157,181 L 160,178 L 160,177 L 162,175 L 162,174 L 165,171 L 165,170 L 167,168 L 167,167 L 170,164 L 170,163 L 172,161 L 172,160 L 175,157 L 175,156 L 177,154 L 177,153 L 179,151 L 179,150 L 182,147 L 182,146 L 185,143 L 185,142 L 187,140 L 186,139 L 185,139 L 184,140 L 183,140 L 181,142 L 180,142 L 178,144 L 177,144 L 176,145 L 175,145 L 173,147 L 172,147 L 171,148 L 170,148 L 168,150 L 167,150 L 166,151 L 165,151 L 164,152 L 163,152 L 161,154 L 160,154 L 159,155 L 158,155 L 156,157 L 155,157 L 154,158 L 153,158 L 151,160 L 150,160 L 149,161 L 148,161 L 146,163 L 145,163 L 144,164 L 143,164 L 142,165 L 141,165 L 139,167 L 138,167 L 137,168 L 136,168 L 134,170 L 133,170 L 132,171 L 131,171 L 129,173 L 126,173 L 124,171 L 123,171 L 122,170 L 121,170 L 119,168 L 118,168 L 117,167 L 116,167 L 114,165 L 113,165 L 112,164 L 111,164 L 110,163 L 109,163 L 107,161 L 106,161 L 105,160 L 104,160 L 102,158 L 101,158 L 100,157 L 99,157 L 97,155 L 96,155 L 95,154 L 94,154 L 92,152 L 91,152 L 90,151 L 89,151 L 88,150 L 87,150 L 85,148 L 84,148 L 83,147 L 82,147 L 80,145 L 79,145 L 78,144 L 77,144 L 75,142 L 74,142 L 72,140 L 71,140 L 70,139 Z" fill="none" stroke="black" stroke-width="1" /><path d="M 126,33 L 126,34 L 124,36 L 124,37 L 123,38 L 123,39 L 121,41 L 121,42 L 120,43 L 120,44 L 118,46 L 118,47 L 117,48 L 117,49 L 115,51 L 115,52 L 114,53 L 114,54 L 112,56 L 112,57 L 111,58 L 111,59 L 109,61 L 109,62 L 108,63 L 108,64 L 106,66 L 106,67 L 105,68 L 105,69 L 103,71 L 103,72 L 102,73 L 102,74 L 100,76 L 100,77 L 99,78 L 99,79 L 97,81 L 97,82 L 96,83 L 96,84 L 94,86 L 94,87 L 93,88 L 93,89 L 91,91 L 91,92 L 90,93 L 90,94 L 88,96 L 88,97 L 86,99 L 86,100 L 85,101 L 85,102 L 83,104 L 83,105 L 82,106 L 82,107 L 80,109 L 80,110 L 79,111 L 79,112 L 77,114 L 77,115 L 76,116 L 76,117 L 74,119 L 74,120 L 73,121 L 73,122 L 71,124 L 71,125 L 70,126 L 70,127 L 68,129 L 68,132 L 69,132 L 70,133 L 71,133 L 73,135 L 74,135 L 75,136 L 76,136 L 77,137 L 78,137 L 80,139 L 81,139 L 82,140 L 83,140 L 85,142 L 86,142 L 87,143 L 88,143 L 90,145 L 91,145 L 92,146 L 93,146 L 95,148 L 96,148 L 97,149 L 98,149 L 100,151 L 101,151 L 102,152 L 103,152 L 104,153 L 105,153 L 107,155 L 108,155 L 109,156 L 110,156 L 112,158 L 113,158 L 114,159 L 115,159 L 117,161 L 118,161 L 119,162 L 120,162 L 122,164 L 123,164 L 124,165 L 125,165 L 126,166 L 129,166 L 130,165 L 131,165 L 132,164 L 133,164 L 135,162 L 136,162 L 137,161 L 138,161 L 140,159 L 141,159 L 142,158 L 143,158 L 145,156 L 146,156 L 147,155 L 148,155 L 150,153 L 151,153 L 152,152 L 153,152 L 155,150 L 156,150 L 157,149 L 158,149 L 159,148 L 160,148 L 162,146 L 163,146 L 164,145 L 165,145 L 167,143 L 168,143 L 169,142 L 170,142 L 172,140 L 173,140 L 174,139 L 175,139 L 177,137 L 178,137 L 179,136 L 180,136 L 181,135 L 182,135 L 184,133 L 185,133 L 186,132 L 187,132 L 187,129 L 185,127 L 185,126 L 184,125 L 184,124 L 182,122 L 182,121 L 181,120 L 181,119 L 179,117 L 179,116 L 177,114 L 177,113 L 176,112 L 176,111 L 174,109 L 174,108 L 173,107 L 173,106 L 171,104 L 171,103 L 170,102 L 170,101 L 168,99 L 168,98 L 167,97 L 167,96 L 165,94 L 165,93 L 164,92 L 164,91 L 162,89 L 162,88 L 161,87 L 161,86 L 159,84 L 159,83 L 158,82 L 158,81 L 156,79 L 156,78 L 155,77 L 155,76 L 153,74 L 153,73 L 152,72 L 152,71 L 150,69 L 150,68 L 149,67 L 149,66 L 147,64 L 147,63 L 146,62 L 146,61 L 144,59 L 144,58 L 143,57 L 143,56 L 141,54 L 141,53 L 140,52 L 140,51 L 138,49 L 138,48 L 137,47 L 137,46 L 135,44 L 135,43 L 133,41 L 133,40 L 132,39 L 132,38 L 130,36 L 130,35 L 129,34 L 129,33 Z" fill="none" stroke="black" stroke-width="1" /><path d="M 143,0 L 144,1 L 146,1 L 147,0 L 148,0 L 149,1 L 150,1 L 151,2 L 152,1 L 153,1 L 154,2 L 155,2 L 156,3 L 159,3 L 160,4 L 163,4 L 164,5 L 168,5 L 169,6 L 171,6 L 172,7 L 173,7 L 174,8 L 175,8 L 176,9 L 178,9 L 179,10 L 180,10 L 181,11 L 182,11 L 183,12 L 184,12 L 185,13 L 186,13 L 187,14 L 188,14 L 189,15 L 190,15 L 191,16 L 192,16 L 194,18 L 195,18 L 196,19 L 197,19 L 199,21 L 200,21 L 203,24 L 204,24 L 207,27 L 208,27 L 228,47 L 228,48 L 230,50 L 230,51 L 233,54 L 233,55 L 235,57 L 235,58 L 237,60 L 237,61 L 238,62 L 238,63 L 240,65 L 240,66 L 241,67 L 241,68 L 242,69 L 242,70 L 243,71 L 243,72 L 244,73 L 244,74 L 245,75 L 245,76 L 246,77 L 246,79 L 247,80 L 247,82 L 248,83 L 248,84 L 249,85 L 249,87 L 250,88 L 250,89 L 251,90 L 251,95 L 252,96 L 252,99 L 253,100 L 253,104 L 254,105 L 254,106 L 255,107 L 254,108 L 254,111 L 255,112 L 254,111 L 254,108 L 255,107 L 254,106 L 254,105 L 253,104 L 253,99 L 252,98 L 252,95 L 251,94 L 251,90 L 250,89 L 250,88 L 249,87 L 249,85 L 248,84 L 248,83 L 247,82 L 247,80 L 246,79 L 246,77 L 245,76 L 245,75 L 244,74 L 244,73 L 243,72 L 243,71 L 242,70 L 242,69 L 241,68 L 241,67 L 240,66 L 240,65 L 239,64 L 239,63 L 237,61 L 237,60 L 236,59 L 236,58 L 234,56 L 234,55 L 232,53 L 232,52 L 229,49 L 229,48 L 227,46 L 227,45 L 210,28 L 209,28 L 206,25 L 205,25 L 202,22 L 201,22 L 199,20 L 198,20 L 197,19 L 196,19 L 194,17 L 193,17 L 192,16 L 191,16 L 190,15 L 189,15 L 188,14 L 187,14 L 186,13 L 185,13 L 184,12 L 183,12 L 182,11 L 181,11 L 180,10 L 179,10 L 178,9 L 176,9 L 175,8 L 174,8 L 173,7 L 172,7 L 171,6 L 169,6 L 168,5 L 164,5 L 163,4 L 160,4 L 159,3 L 156,3 L 155,2 L 154,2 L 153,1 L 152,1 L 151,2 L 150,1 L 149,1 L 148,0 L 147,0 L 146,1 L 144,1 Z" fill="none" stroke="black" stroke-width="1" /><path d="M 111,0 L 110,1 L 105,1 L 104,2 L 103,2 L 102,1 L 101,2 L 100,2 L 99,3 L 96,3 L 95,4 L 92,4 L 91,5 L 87,5 L 86,6 L 84,6 L 83,7 L 82,7 L 81,8 L 80,8 L 79,9 L 77,9 L 76,10 L 75,10 L 74,11 L 73,11 L 72,12 L 71,12 L 70,13 L 69,13 L 68,14 L 67,14 L 66,15 L 65,15 L 64,16 L 63,16 L 62,17 L 61,17 L 59,19 L 58,19 L 57,20 L 56,20 L 54,22 L 53,22 L 50,25 L 49,25 L 46,28 L 45,28 L 28,45 L 28,46 L 26,48 L 26,49 L 23,52 L 23,53 L 21,55 L 21,56 L 19,58 L 19,59 L 18,60 L 18,61 L 16,63 L 16,64 L 15,65 L 15,66 L 14,67 L 14,68 L 13,69 L 13,70 L 12,71 L 12,72 L 11,73 L 11,74 L 10,75 L 10,76 L 9,77 L 9,79 L 8,80 L 8,82 L 7,83 L 7,84 L 6,85 L 6,86 L 5,87 L 5,89 L 4,90 L 4,92 L 3,93 L 4,94 L 3,95 L 3,96 L 2,97 L 3,98 L 2,99 L 2,100 L 1,101 L 2,102 L 2,104 L 1,105 L 1,106 L 0,107 L 0,109 L 1,110 L 1,111 L 0,112 L 1,111 L 1,110 L 0,109 L 0,107 L 1,106 L 1,105 L 2,104 L 2,102 L 1,101 L 3,99 L 3,98 L 2,97 L 4,95 L 4,94 L 3,93 L 4,92 L 4,90 L 5,89 L 5,87 L 6,86 L 6,85 L 7,84 L 7,83 L 8,82 L 8,80 L 9,79 L 9,77 L 10,76 L 10,75 L 11,74 L 11,73 L 12,72 L 12,71 L 13,70 L 13,69 L 14,68 L 14,67 L 15,66 L 15,65 L 17,63 L 17,62 L 18,61 L 18,60 L 20,58 L 20,57 L 22,55 L 22,54 L 25,51 L 25,50 L 27,48 L 27,47 L 47,27 L 48,27 L 51,24 L 52,24 L 55,21 L 56,21 L 58,19 L 59,19 L 60,18 L 61,18 L 63,16 L 64,16 L 65,15 L 66,15 L 67,14 L 68,14 L 69,13 L 70,13 L 71,12 L 72,12 L 73,11 L 74,11 L 75,10 L 76,10 L 77,9 L 79,9 L 80,8 L 81,8 L 82,7 L 83,7 L 84,6 L 86,6 L 87,5 L 91,5 L 92,4 L 95,4 L 96,3 L 99,3 L 100,2 L 101,2 L 102,1 L 103,2 L 104,2 L 105,1 L 110,1 Z" fill="none" stroke="black" stroke-width="1" /></svg>